<?xml version="1.0" encoding="UTF-8"?>
<svg version="1.1" xmlns="http://www.w3.org/2000/svg" width="1920" height="1260">
<path d="M0 0 C633.6 0 1267.2 0 1920 0 C1920 263.34 1920 526.68 1920 798 C1915.73864309 798.85227138 1912.32260577 799.12346722 1908.02079773 799.12025452 C1907.33048881 799.12110894 1906.64017989 799.12196337 1905.92895252 799.12284368 C1903.62277437 799.12448688 1901.31666945 799.11899616 1899.01049805 799.11352539 C1897.35460919 799.11324324 1895.69872021 799.11340179 1894.04283142 799.1139679 C1889.55152424 799.11425479 1885.06024376 799.10837543 1880.56894279 799.10139394 C1875.87374745 799.0951425 1871.17855151 799.09455518 1866.48335266 799.09336853 C1857.59410548 799.0902605 1848.70487059 799.08205421 1839.81562883 799.07201904 C1829.69478813 799.06084152 1819.57394685 799.05534332 1809.45310152 799.05032361 C1788.63539415 799.03987118 1767.81769785 799.02228194 1747 799 C1747.77040816 794.64916209 1749.17783207 791.4545076 1751.30859375 787.5625 C1751.63537613 786.95994385 1751.96215851 786.3573877 1752.29884338 785.73657227 C1753.33889018 783.82094225 1754.38762825 781.91026032 1755.4375 780 C1756.48244697 778.08904691 1757.52544944 776.17708019 1758.56544495 774.26342773 C1759.5102838 772.52631899 1760.46092043 770.79236745 1761.41186523 769.05859375 C1768.46267366 755.47941958 1767.42101443 739.04845857 1763.1953125 724.68359375 C1754.59895882 698.19221623 1735.49309808 676.70154199 1710.75 664.0625 C1699.04400911 658.46848666 1688.46478989 658.18096441 1675.77734375 660.17578125 C1674.50031837 660.37232048 1674.50031837 660.37232048 1673.19749451 660.5728302 C1662.86624807 662.24011815 1652.72492973 664.71588915 1642.5625 667.1875 C1639.68207106 667.88460775 1636.80111146 668.57913601 1633.91844177 669.266922 C1632.1474399 669.68972728 1630.37770311 670.11788042 1628.60951233 670.55229187 C1624.66474321 671.49652795 1621.09048293 672.27643304 1617 672 C1616.827298 653.82791165 1616.827298 653.82791165 1617.5 646.125 C1617.57347656 645.10664062 1617.64695312 644.08828125 1617.72265625 643.0390625 C1618 640 1618 640 1618.55859375 636.7734375 C1619.03901335 632.62300838 1619.22645958 629.00017417 1616.96490455 625.31191242 C1609.80897087 616.39396011 1602.234063 612.58378542 1591.00739765 611.33177423 C1587.97054205 611.05884143 1584.9328168 610.84459894 1581.89111328 610.63305664 C1579.68990874 610.438349 1577.48908956 610.23924279 1575.2886467 610.03610802 C1569.34094328 609.50521438 1563.3897384 609.05411386 1557.4340415 608.62331653 C1553.66374674 608.34532887 1549.8956826 608.04631439 1546.12753677 607.74064827 C1492.53033315 603.40760576 1438.9237093 601.94871966 1385.16608047 601.50150681 C1377.72711192 601.43862809 1370.28844255 601.35494443 1362.84970093 601.26980591 C1300.22756728 600.56876243 1237.71308535 600.76039049 1175.1527071 603.82306528 C1172.8313622 603.93657765 1170.50993887 604.04836282 1168.18849945 604.15992355 C1136.73224199 605.6814844 1105.48826617 607.85003435 1074.3347168 612.63500977 C1061.02724419 614.67639081 1047.4891996 616.55689356 1034 616 C1033.80202006 630.10409403 1033.72768354 644.20702797 1033.75 658.3125 C1033.75160503 659.37082031 1033.75321007 660.42914062 1033.75486374 661.51953125 C1033.86113942 702.68309065 1038.04906474 742.47452584 1045.19612122 782.97868347 C1045.31769718 783.67676715 1045.43927315 784.37485083 1045.56453323 785.09408855 C1045.88842192 786.94576654 1046.21948197 788.79618626 1046.55116272 790.64648438 C1047.01831481 794.13684027 1047.07778207 797.48278806 1047 801 C1037.1066453 801.16331272 1027.21361933 801.28713122 1017.31918335 801.3626852 C1012.7230414 801.39897652 1008.12783199 801.44807471 1003.53222656 801.52807617 C999.0841375 801.60501122 994.63693627 801.64617066 990.18823242 801.6641407 C988.50433399 801.67692025 986.82047554 801.70186881 985.13696289 801.7401104 C974.32793521 801.9755253 966.21777202 800.62753077 956.52880859 795.70252991 C945.48495772 790.37424816 936.6704785 792.0679695 925.1875 794.58984375 C922.58482854 795.13603176 919.98176794 795.67938173 917.37744141 796.2175293 C916.36016433 796.42806537 916.36016433 796.42806537 915.3223362 796.64285469 C885.3007364 802.83358953 856.79296695 805.71931855 826.03652954 805.04058838 C820.66947553 804.93333343 815.4746849 805.14025613 810.14035034 805.76113892 C802.23935642 806.6428824 792.44792303 807.19790004 785 804 C782.64426113 801.78816373 781.55846887 799.90914189 780 797 C780 796.34 780 795.68 780 795 C770.32162818 794.83463695 760.64377331 794.71188168 750.96427536 794.6373148 C746.46508155 794.60144795 741.9668826 794.55319585 737.46826172 794.47192383 C714.58337442 794.06965184 693.4411398 795.58751228 671.11168957 800.71070766 C663.33868668 802.45036472 655.46498786 803.42880028 647.5625 804.375 C646.88180325 804.45710535 646.20110649 804.5392107 645.49978256 804.62380409 C609.71225951 808.91269127 574.55757323 807.28263647 538.8125 803.625 C538.03487556 803.5454306 537.25725113 803.46586121 536.45606232 803.38388062 C527.11071389 802.42376862 517.77069877 801.41944936 508.43383789 800.38018799 C505.56996854 800.06310583 502.70542703 799.75564762 499.83984375 799.45458984 C488.01768669 798.18416498 476.37144689 796.02704214 464.68408203 793.88085938 C462.06891903 793.40251657 459.45251404 792.93147644 456.8359375 792.4609375 C455.65769913 792.24067398 455.65769913 792.24067398 454.45565796 792.01596069 C447.35300782 790.74212991 441.66588384 790.29457216 434.9453125 793.40625 C433.83542969 793.90253906 432.72554688 794.39882813 431.58203125 794.91015625 C429.28379047 795.96708732 426.98690394 797.02696826 424.69140625 798.08984375 C413.48987629 803.08705005 406.7676145 802.26269804 394.94750977 799.86547852 C377.94428687 796.46579709 361.39221118 795.44705399 344.0625 795.5625 C343.01925568 795.56886475 341.97601135 795.57522949 340.90115356 795.58178711 C329.26686953 795.67799028 317.6581335 796.05929446 306.0393219 796.65513611 C300.02351625 796.96284352 294.02481973 797.16007901 288 797.125 C287.13101074 797.12306641 286.26202148 797.12113281 285.36669922 797.11914062 C279.64094832 797.08079141 273.98659442 796.75710598 268.28271484 796.24462891 C256.53859202 795.36945331 245.4874897 796.43776752 233.88711548 798.13787842 C219.33796471 800.23513929 205.01605994 801.48197163 190.3125 801.375 C189.58673767 801.37040771 188.86097534 801.36581543 188.11322021 801.36108398 C179.76068168 801.28584232 171.43071497 800.93324728 163.08984375 800.50390625 C150.48046799 799.86838224 137.87452113 799.62911255 125.25 799.5625 C124.0235376 799.55566193 122.7970752 799.54882385 121.53344727 799.54177856 C98.58719865 799.47937229 76.3796501 801.80315328 53.69181824 804.98286438 C36.65014148 807.33486055 16.66284425 809.55428142 0 804 C0 538.68 0 273.36 0 0 Z " fill="#000000" transform="translate(0,0)"/>
<path d="M0 0 C12.61068414 5.3750457 19.87348651 13.34698103 25 26 C30.90602455 42.50450698 27.47705501 62.85258926 20.16040039 78.34375 C12.82709054 93.17290946 12.82709054 93.17290946 8 98 C5.15185813 98.30526839 2.31976402 98.54946528 -0.53613281 98.75610352 C-1.43223267 98.82452454 -2.32833252 98.89294556 -3.25158691 98.96343994 C-6.23510158 99.18993021 -9.21907298 99.40961736 -12.203125 99.62890625 C-14.27807555 99.78415529 -16.35300614 99.93967145 -18.42791748 100.09544373 C-22.79254726 100.42203024 -27.15741069 100.74524586 -31.52246094 101.06616211 C-37.08742626 101.47557648 -42.65172511 101.89335094 -48.2158699 102.31375217 C-52.51046236 102.63725032 -56.80538921 102.95612133 -61.10042572 103.27366447 C-63.14961089 103.42572821 -65.19869134 103.57921059 -67.24765778 103.7341938 C-77.84922594 104.53356934 -88.36116438 105.26935443 -99 105 C-98.37003528 96.78570192 -96.97559654 88.85256354 -95.1875 80.8125 C-94.84428711 78.96495117 -94.84428711 78.96495117 -94.49414062 77.08007812 C-92.46599197 68.18595106 -92.46599197 68.18595106 -88.18188477 64.72021484 C-84.953125 62.88671875 -84.953125 62.88671875 -81.81347656 61.4362793 C-74.90345741 57.90871572 -72.70781881 50.72458902 -70.375 43.75 C-69.17647393 40.00548694 -68.06875044 36.23774008 -66.9765625 32.4609375 C-63.20690684 19.58379375 -59.34490309 13.38706354 -48 6 C-46.77178109 5.09645577 -45.54665553 4.1886956 -44.32421875 3.27734375 C-29.94667319 -7.06576008 -16.3024815 -5.95845521 0 0 Z " fill="#000000" transform="translate(1700,697)"/>
</svg>
